{
  "accessors": [
    {
      "bufferView": 2,
      "componentType": 5126,
      "count": 14440,
      "max": [
        0.9570040106773376,
        0.3297879993915558,
        1.0
      ],
      "min": [
        -0.9570040106773376,
        -0.3297879993915558,
        -1.0
      ],
      "type": "VEC3"
    },
    {
      "bufferView": 2,
      "byteOffset": 173280,
      "componentType": 5126,
      "count": 14440,
      "max": [
        1.0,
        0.9999892115592957,
        0.9999231100082397
      ],
      "min": [
        -1.0,
        -0.9999998807907104,
        -0.9999350905418396
      ],
      "type": "VEC3"
    },
    {
      "bufferView": 3,
      "componentType": 5126,
      "count": 14440,
      "max": [
        1.0,
        0.9999830722808838,
        0.9999822974205017,
        1.0
      ],
      "min": [
        -1.0,
        -0.9999915361404419,
        -0.9999996423721313,
        -1.0
      ],
      "type": "VEC4"
    },
    {
      "bufferView": 1,
      "componentType": 5126,
      "count": 14440,
      "max": [
        0.9980000257492065,
        0.4050999879837036
      ],
      "min": [
        0.0020000000949949026,
        0.0020000000949949026
      ],
      "type": "VEC2"
    },
    {
      "bufferView": 0,
      "componentType": 5125,
      "count": 64818,
      "type": "SCALAR"
    },
    {
      "bufferView": 2,
      "byteOffset": 346560,
      "componentType": 5126,
      "count": 4800,
      "max": [
        0.8777210116386414,
        0.3144429922103882,
        0.9557039737701416
      ],
      "min": [
        -0.8777210116386414,
        -0.3110699951648712,
        0.8251280188560486
      ],
      "type": "VEC3"
    },
    {
      "bufferView": 2,
      "byteOffset": 404160,
      "componentType": 5126,
      "count": 4800,
      "max": [
        0.9999778866767883,
        0.9982857704162598,
        0.9998049736022949
      ],
      "min": [
        -0.9999778866767883,
        -0.9992930293083191,
        -0.9997418522834778
      ],
      "type": "VEC3"
    },
    {
      "bufferView": 3,
      "byteOffset": 231040,
      "componentType": 5126,
      "count": 4800,
      "max": [
        0.9999887943267822,
        0.7836564183235168,
        0.9981256127357483,
        1.0
      ],
      "min": [
        -0.9999669790267944,
        -0.9714833498001099,
        -0.999898374080658,
        -1.0
      ],
      "type": "VEC4"
    },
    {
      "bufferView": 1,
      "byteOffset": 115520,
      "componentType": 5126,
      "count": 4800,
      "max": [
        0.9980000257492065,
        0.9868999719619751
      ],
      "min": [
        0.0020000000949949026,
        0.0020000000949949026
      ],
      "type": "VEC2"
    },
    {
      "bufferView": 0,
      "byteOffset": 259272,
      "componentType": 5125,
      "count": 26688,
      "type": "SCALAR"
    }
  ],
  "asset": {
    "extras": {
      "author": "Agha.Najam (https://sketchfab.com/Agha.Najam)",
      "license": "CC-BY-4.0 (http://creativecommons.org/licenses/by/4.0/)",
      "source": "https://sketchfab.com/3d-models/ray-ban-glasses-bb3a3736110a41bdacc9f92e11831a41",
      "title": "Ray Ban Glasses"
    },
    "generator": "Sketchfab-12.74.0",
    "version": "2.0"
  },
  "bufferViews": [
    {
      "buffer": 0,
      "byteLength": 366024,
      "name": "floatBufferViews",
      "target": 34963
    },
    {
      "buffer": 0,
      "byteLength": 153920,
      "byteOffset": 366024,
      "byteStride": 8,
      "name": "floatBufferViews",
      "target": 34962
    },
    {
      "buffer": 0,
      "byteLength": 461760,
      "byteOffset": 519944,
      "byteStride": 12,
      "name": "floatBufferViews",
      "target": 34962
    },
    {
      "buffer": 0,
      "byteLength": 307840,
      "byteOffset": 981704,
      "byteStride": 16,
      "name": "floatBufferViews",
      "target": 34962
    }
  ],
  "buffers": [
    {
      "byteLength": 1289544,
      "uri": "scene.bin"
    }
  ],
  "images": [
    {
      "uri": "textures/3_Cargobike_BoxGlass3_baseColor.png"
    },
    {
      "uri": "textures/3_Cargobike_BoxGlass3_metallicRoughness.png"
    },
    {
      "uri": "textures/3_Cargobike_BoxGlass3_normal.png"
    },
    {
      "uri": "textures/03___Default_baseColor.jpeg"
    },
    {
      "uri": "textures/03___Default_metallicRoughness.png"
    },
    {
      "uri": "textures/03___Default_normal.png"
    }
  ],
  "materials": [
    {
      "alphaMode": "BLEND",
      "doubleSided": true,
      "name": "3_Cargobike_BoxGlass3",
      "normalTexture": {
        "index": 2
      },
      "occlusionTexture": {
        "index": 1
      },
      "pbrMetallicRoughness": {
        "baseColorTexture": {
          "index": 0
        },
        "metallicRoughnessTexture": {
          "index": 1
        }
      }
    },
    {
      "doubleSided": true,
      "name": "03___Default",
      "normalTexture": {
        "index": 5
      },
      "occlusionTexture": {
        "index": 4
      },
      "pbrMetallicRoughness": {
        "baseColorTexture": {
          "index": 3
        },
        "metallicRoughnessTexture": {
          "index": 4
        }
      }
    }
  ],
  "meshes": [
    {
      "name": "defaultMaterial",
      "primitives": [
        {
          "attributes": {
            "NORMAL": 1,
            "POSITION": 0,
            "TANGENT": 2,
            "TEXCOORD_0": 3
          },
          "indices": 4,
          "material": 1,
          "mode": 4
        }
      ]
    },
    {
      "name": "defaultMaterial",
      "primitives": [
        {
          "attributes": {
            "NORMAL": 6,
            "POSITION": 5,
            "TANGENT": 7,
            "TEXCOORD_0": 8
          },
          "indices": 9,
          "material": 0,
          "mode": 4
        }
      ]
    }
  ],
  "nodes": [
    {
      "children": [
        1
      ],
      "matrix": [
        1.0,
        0.0,
        0.0,
        0.0,
        0.0,
        2.220446049250313e-16,
        -1.0,
        0.0,
        0.0,
        1.0,
        2.220446049250313e-16,
        0.0,
        0.0,
        0.0,
        0.0,
        1.0
      ],
      "name": "Sketchfab_model"
    },
    {
      "children": [
        2,
        4
      ],
      "matrix": [
        1.0,
        0.0,
        0.0,
        0.0,
        0.0,
        -4.371139006309477e-08,
        0.999999999999999,
        0.0,
        0.0,
        -0.999999999999999,
        -4.371139006309477e-08,
        0.0,
        0.0,
        0.0,
        0.0,
        1.0
      ],
      "name": "Collada visual scene group"
    },
    {
      "children": [
        3
      ],
      "name": "g"
    },
    {
      "mesh": 0,
      "name": "defaultMaterial"
    },
    {
      "children": [
        5
      ],
      "name": "g"
    },
    {
      "mesh": 1,
      "name": "defaultMaterial"
    }
  ],
  "samplers": [
    {
      "magFilter": 9729,
      "minFilter": 9987,
      "wrapS": 10497,
      "wrapT": 10497
    }
  ],
  "scene": 0,
  "scenes": [
    {
      "name": "Sketchfab_Scene",
      "nodes": [
        0
      ]
    }
  ],
  "textures": [
    {
      "sampler": 0,
      "source": 0
    },
    {
      "sampler": 0,
      "source": 1
    },
    {
      "sampler": 0,
      "source": 2
    },
    {
      "sampler": 0,
      "source": 3
    },
    {
      "sampler": 0,
      "source": 4
    },
    {
      "sampler": 0,
      "source": 5
    }
  ]
}
